<?xml-stylesheet type="text/css" href="css/style.css"?>
<svg version="1.0" xmlns="http://www.w3.org/2000/svg"
width="296.000000pt" height="305.000000pt" viewBox="0 0 296.000000 305.000000"
preserveAspectRatio="xMidYMid meet" xmlns:xlink="http://www.w3.org/1999/xlink">
    <g transform="translate(0.000000,305.000000) scale(0.100000,-0.100000)"
    stroke="none" fill="white">
        <path class="logo" d="M76 3028 c-21 -13 -47 -39 -58 -58 -17 -34 -18 -73 -16 -932 3 -888
        3 -897 24 -924 38 -51 70 -68 129 -68 59 0 91 17 129 68 21 27 21 40 26 743
        l5 716 502 -394 502 -394 1 -836 0 -836 23 -33 c37 -55 72 -75 131 -75 40 0
        61 6 89 25 66 46 1322 1037 1344 1061 66 71 53 171 -28 232 -39 28 -106 33
        -149 10 -19 -10 -269 -203 -555 -427 -286 -225 -526 -413 -532 -419 -10 -7
        -13 123 -12 644 l0 654 601 470 c330 259 620 488 645 510 96 83 96 188 2 258
        -39 28 -106 33 -149 10 -19 -11 -308 -234 -642 -496 -333 -262 -609 -477 -613
        -477 -4 0 -277 213 -607 473 -330 259 -612 481 -625 491 -40 30 -119 32 -167
        4z"/>
    </g>
</svg>